# xmcd
#
# Track frame offsets:
#	150
#	14649
#	31122
#	53846
#	71121
#	84784
#	100947
#	115652
#	130534
#	141234
#	155073
#
# Disc length: 2415 seconds
#
# Revision: 1
# Processed by: cddbd v1.5.2PL0 Copyright (c) Steve Scherf et al.
# Submitted via: audiograbber 1.83.01
#
DISCID=8b096d0b
DTITLE=Micke Björklöf and Bluestrip - Whole 'Nutha Thang
DYEAR=2007
DGENRE=Blues
TTITLE0=Hard for a woman, hard for a man
TTITLE1=Jungle cat
TTITLE2=Extreme
TTITLE3=Whatever your name
TTITLE4=Back to my room
TTITLE5=I fell down from the tree (when I saw Robert Johnson pass me by)
TTITLE6=Grapesugar love
TTITLE7=It's been so long
TTITLE8=Walkin 'round the house
TTITLE9=Girl of my favourite song
TTITLE10=Silver moon
EXTD=Bluelight Records BLR 33143 2, Finland
EXTT0=
EXTT1=
EXTT2=
EXTT3=
EXTT4=
EXTT5=
EXTT6=
EXTT7=
EXTT8=
EXTT9=
EXTT10=
PLAYORDER=
